<?xml version="1.0" encoding="UTF-8"?>
<svg xmlns="http://www.w3.org/2000/svg" id="Layer_1" data-name="Layer 1" viewBox="0 0 24 24">
  <path d="m16,2.172v-1.172c0-.553-.448-1-1-1s-1,.447-1,1v1h-2v-1c0-.553-.448-1-1-1s-1,.447-1,1v1h-2v-1c0-.553-.448-1-1-1s-1,.447-1,1v1h-2v-1c0-.553-.448-1-1-1s-1,.447-1,1v1.172c-1.164.413-2,1.524-2,2.828v14c0,2.757,2.243,5,5,5h8c2.757,0,5-2.243,5-5V5c0-1.304-.836-2.415-2-2.828Zm-6,14.828h-5c-.552,0-1-.447-1-1s.448-1,1-1h5c.552,0,1,.447,1,1s-.448,1-1,1Zm3-4H5c-.552,0-1-.447-1-1s.448-1,1-1h8c.552,0,1,.447,1,1s-.448,1-1,1Zm0-4H5c-.552,0-1-.447-1-1s.448-1,1-1h8c.552,0,1,.447,1,1s-.448,1-1,1Zm9,15l-1.121-1.121c-.563-.563-.879-1.326-.879-2.121V2c0-1.105.895-2,2-2h0c1.105,0,2,.895,2,2v18.757c0,.796-.316,1.559-.879,2.121l-1.121,1.121"/>
</svg>
